<svg xmlns="http://www.w3.org/2000/svg" xmlns:xlink="http://www.w3.org/1999/xlink" fill="none" version="1.1" width="18.38477599620819" height="18.38477599620819" viewBox="0 0 18.38477599620819 18.38477599620819"><g transform="matrix(0.7071067690849304,0.7071067690849304,-0.7071067690849304,0.7071067690849304,4.192388169246804,-5.8786794189168745)"><path d="M7.692377998104096,3.6213303072547913L9.192387998104095,3.6213203072547913L17.692387998104095,3.6213203072547913L17.692387998104095,12.121320307254791L17.692377998104096,13.621320307254791L20.692387998104095,13.621320307254791L20.692387998104095,12.121320307254791L20.692387998104095,2.1213203072547913Q20.692387998104095,2.0476300072547913,20.685187998104098,1.9742943072547914Q20.677987998104093,1.9009593072547912,20.663587998104095,1.8286853072547913Q20.649187998104097,1.7564103072547912,20.627787998104097,1.6858933072547913Q20.606387998104097,1.6153763072547913,20.578187998104095,1.5472953072547913Q20.549987998104093,1.4792143072547912,20.515287998104096,1.4142253072547912Q20.480487998104095,1.3492363072547913,20.439587998104095,1.2879653072547912Q20.398687998104094,1.2266933072547914,20.351887998104097,1.1697303072547913Q20.305187998104095,1.1127703072547912,20.253087998104096,1.0606603072547913Q20.200987998104097,1.0085503072547912,20.143987998104095,0.9618003072547912Q20.086987998104096,0.9150603072547911,20.025787998104093,0.8741203072547912Q19.964487998104097,0.8331803072547912,19.899487998104096,0.7984403072547912Q19.834487998104095,0.7637003072547912,19.766387998104094,0.7355003072547912Q19.698287998104096,0.7073003072547912,19.627787998104097,0.6859103072547912Q19.557287998104094,0.6645203072547912,19.484987998104096,0.6501403072547913Q19.412787998104093,0.6357703072547913,19.339387998104094,0.6285403072547913Q19.266087998104098,0.6213203072547913,19.192387998104095,0.6213203072547913L9.192387998104095,0.6213203072547913L7.692377998104096,0.6213103072547912L7.692377998104096,3.6213303072547913Z" fill-rule="evenodd" fill="#E31F26" fill-opacity="1"/></g></svg>