<svg xmlns="http://www.w3.org/2000/svg" xmlns:xlink="http://www.w3.org/1999/xlink" fill="none" version="1.1" width="16.97056245803833" height="16.97056245803833" viewBox="0 0 16.97056245803833 16.97056245803833"><g transform="matrix(0.7071067690849304,0.7071067690849304,-0.7071067690849304,0.7071067690849304,3.485281400161874,-5.585786222230347)"><path d="M7.485281229019165,2.414213538169861L8.485281229019165,2.414213538169861L17.485281229019165,2.414213538169861L17.485281229019165,11.41421353816986L17.485281229019165,12.41421353816986L19.485281229019165,12.41421353816986L19.485281229019165,11.41421353816986L19.485281229019165,1.4142135381698608Q19.485281229019165,1.315722138169861,19.466081229019167,1.2191235381698609Q19.446881229019166,1.122524538169861,19.409181229019165,1.0315305381698607Q19.371481229019167,0.9405355381698608,19.316781229019163,0.8586435381698608Q19.261981229019163,0.7767505381698608,19.192381229019166,0.7071065381698608Q19.122781229019164,0.6374625381698609,19.040881229019163,0.5827435381698608Q18.958981229019166,0.5280255381698609,18.867981229019165,0.49033453816986083Q18.776981229019164,0.4526435381698608,18.680381229019165,0.4334285381698608Q18.583781229019166,0.41421353816986084,18.485281229019165,0.41421353816986084L8.485281229019165,0.41421353816986084L7.485281229019165,0.41421353816986084L7.485281229019165,2.414213538169861Z" fill-rule="evenodd" fill="#FFFFFF" fill-opacity="1"/></g></svg>