<svg xmlns="http://www.w3.org/2000/svg" xmlns:xlink="http://www.w3.org/1999/xlink" fill="none" version="1.1" width="16.97056245803833" height="16.97056245803833" viewBox="0 0 16.97056245803833 16.97056245803833"><g transform="matrix(-0.7071067690849304,0.7071067690849304,-0.7071067690849304,-0.7071067690849304,32.55634833798326,3.485281400161874)"><path d="M14.55634891986847,9.485281229019165L15.55634891986847,9.485281229019165L24.55634891986847,9.485281229019165L24.55634891986847,18.485281229019165L24.55634891986847,19.485281229019165L26.55634891986847,19.485281229019165L26.55634891986847,18.485281229019165L26.55634891986847,8.485281229019165Q26.55634891986847,8.386789829019165,26.53714891986847,8.290191229019165Q26.51794891986847,8.193592229019165,26.48024891986847,8.102598229019165Q26.44254891986847,8.011603229019165,26.387848919868468,7.929711229019165Q26.333048919868467,7.847818229019165,26.26344891986847,7.778174229019165Q26.19384891986847,7.708530229019165,26.111948919868468,7.653811229019165Q26.03004891986847,7.599093229019165,25.93904891986847,7.561402229019165Q25.848048919868468,7.523711229019165,25.75144891986847,7.504496229019165Q25.65484891986847,7.485281229019165,25.55634891986847,7.485281229019165L15.55634891986847,7.485281229019165L14.55634891986847,7.485281229019165L14.55634891986847,9.485281229019165Z" fill-rule="evenodd" fill="#FFFFFF" fill-opacity="1"/></g></svg>