<svg xmlns="http://www.w3.org/2000/svg" xmlns:xlink="http://www.w3.org/1999/xlink" fill="none" version="1.1" width="12.828445434570312" height="12.828125" viewBox="0 0 12.828445434570312 12.828125"><g><g><path d="M0.41422271728515625,2.4140625L1.4142227172851562,2.4140625L10.414222717285156,2.4140625L10.414222717285156,11.4140625L10.414222717285156,12.4140625L12.414222717285156,12.4140625L12.414222717285156,11.4140625L12.414222717285156,1.4140625Q12.414222717285156,1.3155711,12.395022717285157,1.2189725Q12.375822717285157,1.1223735000000001,12.338122717285156,1.0313795Q12.300422717285157,0.9403845,12.245722717285156,0.8584925Q12.190922717285156,0.7765995,12.121322717285157,0.7069555Q12.051722717285156,0.6373115,11.969822717285156,0.5825925Q11.887922717285155,0.5278745,11.796922717285156,0.4901835Q11.705922717285157,0.45249249999999996,11.609322717285156,0.4332775Q11.512722717285156,0.4140625,11.414222717285156,0.4140625L1.4142227172851562,0.4140625L0.41422271728515625,0.4140625L0.41422271728515625,2.4140625Z" fill-rule="evenodd" fill="#E31F26" fill-opacity="1"/></g><g><path d="M10.707402717285156,0.7066675L0.7071157172851562,10.7069525L0.7068277172851563,10.7072425L0.000002717285156217386,11.4140625L0.7071127172851562,12.1211625L1.4142227172851562,12.8282625L2.1213297172851564,12.1211625L12.121322717285157,2.1211695L12.828422717285155,1.4140625L12.121322717285157,0.7069525L11.414222717285156,-0.00015750000000003261L10.707402717285156,0.7066675Z" fill-rule="evenodd" fill="#E31F26" fill-opacity="1"/></g></g></svg>