<svg xmlns="http://www.w3.org/2000/svg" xmlns:xlink="http://www.w3.org/1999/xlink" fill="none" version="1.1" width="22.707166538930437" height="22.707166538930437" viewBox="0 0 22.707166538930437 22.707166538930437"><g transform="matrix(0.7071067690849304,0.7071067690849304,-0.7071067690849304,0.7071067690849304,4.325387652028406,-7.613982010809869)"><path d="M10.646476269465218,6.420353538169861L20.403833269465217,16.17771353816986Q20.58010326946522,16.35401353816986,20.81847326946522,16.426913538169863Q20.912653269465217,16.45571353816986,21.010653269465216,16.465613538169862Q21.10864326946522,16.47541353816986,21.206683269465216,16.46601353816986Q21.30472326946522,16.45661353816986,21.39908326946522,16.42821353816986Q21.49338326946522,16.39981353816986,21.58028326946522,16.35361353816986Q21.66728326946522,16.30741353816986,21.74358326946522,16.24501353816986Q21.81988326946522,16.18271353816986,21.88248326946522,16.106713538169863Q21.94518326946522,16.03081353816986,21.991783269465216,15.94401353816986Q22.038383269465218,15.85721353816986,22.067183269465218,15.763113538169861L26.36628326946522,1.706682538169861Q26.40998326946522,1.5637165381698608,26.40998326946522,1.4142135153185609Q26.40998326946522,1.264710538169861,26.36628326946522,1.1217445381698607Q26.337483269465217,1.0275595381698608,26.29078326946522,0.9408045381698609Q26.244183269465218,0.8540485381698608,26.181583269465218,0.7780565381698609Q26.11888326946522,0.7020645381698608,26.04258326946522,0.6397565381698609Q25.96628326946522,0.5774485381698609,25.87938326946522,0.5312185381698609Q25.79238326946522,0.48498853816986087,25.69808326946522,0.45661353816986083Q25.603783269465218,0.4282375381698609,25.50568326946522,0.4188075381698608Q25.407683269465217,0.4093735381698609,25.309683269465218,0.41925553816986083Q25.21168326946522,0.42913253816986086,25.117483269465218,0.45793853816986085L11.061114269465218,4.756973538169861Q10.822740269465218,4.829873538169861,10.646476269465218,5.0061435381698605Q10.505824269465219,5.146793538169861,10.42970426946522,5.33056353816986Q10.353583269465219,5.514333538169861,10.353583269465219,5.713243538169861Q10.353583269465219,5.912153538169861,10.429703269465218,6.095933538169861Q10.505824269465219,6.279703538169861,10.646476269465218,6.420353538169861ZM20.641363269465216,13.58681353816986L23.90348326946522,2.9206735381698605L13.23738326946522,6.182823538169861L20.641363269465216,13.58681353816986Z" fill-rule="evenodd" fill="#FFFFFF" fill-opacity="1"/></g></svg>