<svg xmlns="http://www.w3.org/2000/svg" xmlns:xlink="http://www.w3.org/1999/xlink" fill="none" version="1.1" width="32" height="32" viewBox="0 0 32 32"><g><g><path d="M4.36364,0L27.6364,0C30.0463,0,32,1.95367,32,4.36364L32,27.6364C32,30.0463,30.0463,32,27.6364,32L4.36364,32C1.95367,32,0,30.0463,0,27.6364L0,4.36364C0,1.95367,1.95367,0,4.36364,0ZM20.7473,16.8927L21.0691,14.1073C21.0883,13.9589,21.0433,13.8093,20.9454,13.6962C20.8475,13.583,20.706,13.5169,20.5564,13.5145L17.3073,13.5145L17.3073,11.1855C17.3073,10.1364,17.5945,9.40909,19.0727,9.40909L20.44,9.40909C20.5792,9.40765,20.7121,9.35085,20.8093,9.25123C20.9066,9.15161,20.9601,9.01737,20.9582,8.87818L20.9582,6.53091C20.9601,6.39172,20.9066,6.25748,20.8093,6.15786C20.7121,6.05824,20.5792,6.00144,20.44,6L18.2109,6C15.4909,6,13.6364,7.7,13.6364,10.8236L13.6364,13.5145L11.4436,13.5145C11.3047,13.5165,11.1723,13.5735,11.0755,13.673C10.9786,13.7726,10.9253,13.9066,10.9273,14.0455L10.9382,16.8327C10.9367,16.9711,10.9903,17.1044,11.0871,17.2033C11.184,17.3022,11.3161,17.3586,11.4545,17.36L13.6364,17.36L13.6364,25.6218C13.6324,25.7208,13.669,25.817,13.7376,25.8884C13.8062,25.9598,13.901,26.0001,14,26L16.9473,26C17.151,25.995,17.313,25.8274,17.3109,25.6236L17.3254,17.36L20.2345,17.36C20.4996,17.3577,20.7204,17.1564,20.7473,16.8927Z" fill-rule="evenodd" fill="#E31F26" fill-opacity="1"/></g></g></svg>