<svg xmlns="http://www.w3.org/2000/svg" xmlns:xlink="http://www.w3.org/1999/xlink" fill="none" version="1.1" width="934" height="275.7671813964845" viewBox="0 0 934 275.7671813964845"><defs><linearGradient x1="0.5" y1="0" x2="0.5" y2="1" id="master_svg0_0_342"><stop offset="0%" stop-color="#FFFFFF" stop-opacity="1"/><stop offset="100%" stop-color="#FFFFFF" stop-opacity="0"/></linearGradient></defs><g transform="matrix(-1,1.2246468525851679e-16,-1.2246468525851679e-16,-1,1866,549.5343627929686)"><path d="M1015.5229,436.15218139648437Q966.4333,486.71118139648433,932.12724,548.0461813964844L931.63908,548.9191813964844L933.384612,549.8951813964843L933.87276,549.0221813964844Q968.0508,487.9151813964844,1016.9578,437.5451813964844Q1065.816,387.22418139648437,1125.842,351.25598139648434Q1186.849,314.6987813964844,1255.142,295.5363813964844Q1325.596,275.7671813964844,1399.479,275.7672013964844Q1473.107,275.7671813964844,1543.336,295.40198139648436Q1611.417,314.43568139648437,1672.279,350.75588139648437Q1732.156,386.48918139648435,1780.9859999999999,436.50418139648434Q1829.844,486.55218139648434,1864.129,547.3211813964843L1864.62,548.1921813964843L1866.362,547.2091813964844L1865.871,546.3381813964844Q1831.458,485.3431813964844,1782.417,435.1071813964844Q1733.406,384.9051813964844,1673.304,349.0383813964844Q1612.211,312.5813813964844,1543.875,293.4758813964844Q1473.38,273.7671813964844,1399.479,273.7672013964844Q1325.3229999999999,273.7671813964844,1254.601,293.61078139648436Q1186.051,312.8452813964844,1124.814,349.54038139648435Q1064.564,385.64318139648435,1015.5229,436.15218139648437Z" fill-rule="evenodd" fill="url(#master_svg0_0_342)" fill-opacity="1"/></g></svg>