<svg xmlns="http://www.w3.org/2000/svg" xmlns:xlink="http://www.w3.org/1999/xlink" fill="none" version="1.1" width="35.399993896484375" height="39" viewBox="0 0 35.399993896484375 39"><g><g><path d="M29.099,0.798675L28.5,0L5.9,0L5.30027,0.799644L5.3,0.8L1.399963,6.00005L1.399297,6.00094L0,7.86667L0,33.4Q0,33.5187,0.00527500000000003,33.6353Q0.08440000000000003,35.3836,1.350393,36.6496Q1.519189,36.8184,1.696567,36.9661Q2.93819,38,4.6,38L29.8,38Q31.7054,38,33.0527,36.6527Q34.4,35.3054,34.4,33.4L34.4,7.86667L33,6.00005L29.1,0.8L29.099,0.798675ZM29.9,5.20005L27.5,2L6.9,2L4.49996,5.20005L2.9999599999999997,7.20005L5.49996,7.20005L31.4,7.20005L29.9,5.20005ZM2,9.20005L2,33.4Q2,34.3369,2.5854,35.0395Q2.6690300000000002,35.1398,2.7646100000000002,35.2354Q3.52921,36,4.6,36L29.8,36Q32.4,36,32.4,33.4L32.4,9.20005L31.96,9.20005L31.4,9.20005L2.9999599999999997,9.20005L2.99837,9.20005L2.44,9.20005L2,9.20005ZM12.8159,19.784Q11.003,17.9711,11,15.4085L11,15.3999L11,14.3999L9,14.3999L9,15.3999Q9,15.6122,9.00938,15.8206Q9.0226,16.1141,9.05442,16.399900000000002Q9.36152,19.158,11.4017,21.1982Q13.8034,23.5999,17.2,23.5999Q20.5965,23.5999,22.9983,21.1982Q25.0385,19.158,25.3456,16.399900000000002Q25.4,15.9112,25.4,15.3999L25.4,14.3999L23.4,14.3999L23.4,15.3999L23.4,15.4085Q23.3998,15.5646,23.3929,15.718Q23.2865,18.0815,21.5841,19.784Q19.7681,21.5999,17.2,21.5999Q17.0395,21.5999,16.8819,21.5928Q14.5184,21.4864,12.8159,19.784Z" fill-rule="evenodd" fill="#E31F26" fill-opacity="1"/></g></g></svg>