<svg xmlns="http://www.w3.org/2000/svg" xmlns:xlink="http://www.w3.org/1999/xlink" fill="none" version="1.1" width="21.333328247070312" height="21.33349609375" viewBox="0 0 21.333328247070312 21.33349609375"><g><g><ellipse cx="10.666664123535156" cy="10.666748046875" rx="10" ry="10" fill-opacity="0" stroke-opacity="1" stroke="#E31F26" fill="none" stroke-width="1.3333333730697632" stroke-linecap="ROUND" stroke-linejoin="round"/></g><g><path d="M11.333334123535156,14.666748046875L11.333334123535156,10.666748046875Q11.333334123535156,10.643163846875,11.331664123535155,10.619638546875L11.331664123535155,10.001745046875L10.713732123535156,10.001745046875Q10.690227123535156,10.000081046875,10.666664123535156,10.000081046875Q10.643101123535157,10.000081046875,10.619596123535157,10.001745046875L10.001661123535156,10.001745046875L10.001664123535157,10.619640146875Q9.999997123535156,10.643164646875,9.999997123535156,10.666748046875L9.999997123535156,14.666748046875Q9.999997123535156,14.690328046874999,10.001664123535157,14.713858046875L10.001661123535156,15.331748046875L10.619595123535156,15.331748046875Q10.643100123535156,15.333418046875,10.666664123535156,15.333418046875Q10.690228123535157,15.333418046875,10.713733123535157,15.331748046875L11.331664123535155,15.331748046875L11.331664123535155,14.713858046875Q11.333334123535156,14.690328046874999,11.333334123535156,14.666748046875Z" fill-rule="evenodd" fill="#E31F26" fill-opacity="1"/></g><g><path d="M10.666664237976073,7.333418046875L10.676664237976075,7.333418046875Q10.700248237976075,7.333418046875,10.723774237976075,7.331748046875L11.341664237976074,7.331748046875L11.341664237976074,6.713815046875Q11.343334237976075,6.690311046875,11.343334237976075,6.666748046875Q11.343334237976075,6.643185046875,11.341664237976074,6.619681046875L11.341664237976074,6.0017450468749995L10.723772237976075,6.001748046875Q10.700247237976074,6.000081046875,10.676664237976075,6.000081046875L10.666664237976073,6.000081046875Q10.643081237976075,6.000081046875,10.619556237976074,6.001748046875L10.001661237976075,6.0017450468749995L10.001661237976075,6.619680046875Q9.999997237976075,6.643185046875,9.999997237976075,6.666748046875Q9.999997237976075,6.690311046875,10.001661237976075,6.713816046875L10.001661237976075,7.331748046875L10.619554237976073,7.331748046875Q10.643080237976074,7.333418046875,10.666664237976073,7.333418046875Z" fill-rule="evenodd" fill="#E31F26" fill-opacity="1"/></g></g></svg>