<svg xmlns="http://www.w3.org/2000/svg" xmlns:xlink="http://www.w3.org/1999/xlink" fill="none" version="1.1" width="32" height="32" viewBox="0 0 32 32"><g><g><path d="M4.36364,0L27.6364,0C30.0463,0,32,1.95367,32,4.36364L32,27.6364C32,30.0463,30.0463,32,27.6364,32L4.36364,32C1.95367,32,0,30.0463,0,27.6364L0,4.36364C0,1.95367,1.95367,0,4.36364,0ZM6.06909,8.72727C6.06909,10.2335,7.29013,11.4545,8.79636,11.4545C10.3026,11.4545,11.5236,10.2335,11.5236,8.72727C11.5236,7.22104,10.3026,6,8.79636,6C7.29013,6,6.06909,7.22104,6.06909,8.72727ZM25.753,25.8113C25.8697,25.6945,25.9351,25.5361,25.9346,25.371L25.9309,19.5456L25.9309,19.4959C25.9311,16.9512,25.9315,12.3965,21.0218,12.3965C18.7909,12.3965,17.7455,13.211,17.04,14.271L17.04,13.2201C17.04,12.8767,16.7616,12.5983,16.4182,12.5983L13.4327,12.5983C13.268,12.5983,13.11,12.6639,12.9937,12.7805C12.8774,12.8972,12.8123,13.0554,12.8127,13.2201L12.8127,25.3783C12.8123,25.5431,12.8774,25.7012,12.9937,25.8179C13.11,25.9346,13.268,26.0001,13.4327,26.0001L16.4182,26.0001C16.7581,25.9952,17.031,25.7182,17.0309,25.3783L17.0309,18.8583C17.1073,17.9819,17.4946,16.031,19.3946,16.031C21.6667,16.031,21.6218,18.4776,21.6029,19.5085C21.6014,19.5905,21.6,19.6635,21.6,19.7256L21.6,25.371C21.5995,25.5361,21.6649,25.6945,21.7816,25.8113C21.8983,25.928,22.0568,25.9933,22.2218,25.9928L25.3127,25.9928C25.4778,25.9933,25.6363,25.928,25.753,25.8113ZM10.9091,25.3235C10.9096,25.5027,10.8387,25.6747,10.7122,25.8016C10.5856,25.9285,10.4138,25.9998,10.2346,25.9998L7.36002,25.9998C7.18049,26.0003,7.00817,25.9292,6.88122,25.8023C6.75428,25.6753,6.68317,25.503,6.68366,25.3235L6.68366,13.2726C6.68366,12.899,6.98648,12.5962,7.36002,12.5962L10.2346,12.5962C10.6074,12.5972,10.9091,12.8997,10.9091,13.2726L10.9091,25.3235Z" fill-rule="evenodd" fill="#E31F26" fill-opacity="1"/></g></g></svg>