<svg xmlns="http://www.w3.org/2000/svg" xmlns:xlink="http://www.w3.org/1999/xlink" fill="none" version="1.1" width="272.8212890625" height="50" viewBox="0 0 272.8212890625 50"><defs><mask id="master_svg0_0_466" style="mask-type:alpha" maskUnits="objectBoundingBox"><g><path d="M196.96121215820312,37.79971694946289L209.88841215820312,37.79971694946289L209.88841215820312,50.00001694946289L196.96121215820312,50.00001694946289L196.96121215820312,37.79971694946289Z" fill-rule="evenodd" fill="#FFFFFF" fill-opacity="1"/></g></mask><mask id="master_svg1_0_469" style="mask-type:alpha" maskUnits="objectBoundingBox"><g><path d="M259.8916931152344,37.79971694946289L272.8193931152344,37.79971694946289L272.8193931152344,50.00001694946289L259.8916931152344,50.00001694946289L259.8916931152344,37.79971694946289Z" fill-rule="evenodd" fill="#FFFFFF" fill-opacity="1"/></g></mask><mask id="master_svg2_0_491" style="mask-type:alpha" maskUnits="objectBoundingBox"><g><path d="M0,50L272.821,50L272.821,0L0,0L0,50Z" fill-rule="evenodd" fill="#FFFFFF" fill-opacity="1"/></g></mask></defs><g><g mask="url(#master_svg0_0_466)"><g><path d="M209.19091215820313,41.79919694946289L209.19091215820313,38.96063694946289C207.81541215820312,38.26391994946289,205.8051021582031,37.79971694946289,203.09440215820314,37.79971694946289C197.67869115820312,37.79971694946289,196.96121215820312,40.11543694946289,196.96121215820312,41.30730694946289C196.96121215820312,43.30011694946289,198.17954215820313,44.21875694946289,200.22407215820311,44.94152694946289C202.61553215820314,45.78482694946289,204.61772215820312,45.50386694946289,204.61772215820312,46.51289694946289C204.61772215820312,46.80444694946289,204.23169215820312,47.09844694946289,203.21696215820313,47.09844694946289C201.11583215820312,47.09844694946289,198.88562215820312,46.28649694946289,197.4262301582031,45.40898694946289L197.4262301582031,48.539116949462894C199.28711215820312,49.432116949462895,201.58370215820312,50.00011694946289,203.45232215820312,50.00011694946289C207.6200121582031,50.00011694946289,209.88841215820312,48.32611694946289,209.88841215820312,46.11465694946289C209.88841215820312,43.93127694946289,208.1680121582031,43.04236694946289,205.33479215820313,42.35298694946289C203.51747215820313,41.91320694946289,202.32154215820313,41.91320694946289,202.32154215820313,41.21283694946289C202.32154215820313,40.82640694946289,202.83175215820313,40.53281694946289,203.82083215820313,40.53281694946289C205.54327215820314,40.53281694946289,207.51611215820313,41.04913694946289,209.19091215820313,41.79919694946289L209.19091215820313,41.79919694946289Z" fill-rule="evenodd" fill="#000000" fill-opacity="1"/></g></g><g mask="url(#master_svg1_0_469)"><g><path d="M272.12179311523437,41.79919694946289L272.12179311523437,38.96063694946289C270.7491931152344,38.26391994946289,268.73680311523435,37.79971694946289,266.0256931152344,37.79971694946289C260.6099871152344,37.79971694946289,259.8916931152344,40.11543694946289,259.8916931152344,41.30730694946289C259.8916931152344,43.30011694946289,261.11083311523436,44.21875694946289,263.1525231152344,44.94152694946289C265.54479311523437,45.78482694946289,267.5506431152344,45.50386694946289,267.5506431152344,46.51289694946289C267.5506431152344,46.80444694946289,267.16299311523437,47.09844694946289,266.1486631152344,47.09844694946289C264.04835311523436,47.09844694946289,261.81569311523435,46.28649694946289,260.3546751152344,45.40898694946289L260.3546751152344,48.539116949462894C262.21881311523435,49.432116949462895,264.51296311523436,50.00011694946289,266.3848431152344,50.00011694946289C270.5532931152344,50.00011694946289,272.8193931152344,48.32611694946289,272.8193931152344,46.11465694946289C272.8193931152344,43.93127694946289,271.10059311523435,43.04236694946289,268.26568311523437,42.35298694946289C266.45080311523435,41.91320694946289,265.25609311523436,41.91320694946289,265.25609311523436,41.21283694946289C265.25609311523436,40.82640694946289,265.7659031152344,40.53281694946289,266.74968311523435,40.53281694946289C268.4733431152344,40.53281694946289,270.4473931152344,41.04913694946289,272.12179311523437,41.79919694946289L272.12179311523437,41.79919694946289Z" fill-rule="evenodd" fill="#000000" fill-opacity="1"/></g></g><g><path d="M188.21639653320312,49.927230767822266C193.1719465332031,49.927230767822266,195.04584653320313,47.986500767822264,195.04584653320313,45.07830076782226L195.04584653320313,38.317630767822266L190.14202653320314,38.317630767822266L190.14202653320314,45.367010767822265C190.14202653320314,46.249400767822266,189.13259653320313,46.99050076782227,188.21639653320312,46.99050076782227C187.30102653320313,46.99050076782227,186.29239653320312,46.249400767822266,186.29239653320312,45.367010767822265L186.29239653320312,38.317630767822266L181.38894653320312,38.317630767822266L181.38894653320312,45.07830076782226C181.38894653320312,47.986500767822264,183.26123653320312,49.927230767822266,188.21639653320312,49.927230767822266L188.21639653320312,49.927230767822266Z" fill-rule="evenodd" fill="#000000" fill-opacity="1"/></g><g><path d="M258.00119953125,49.59517490844726L258.00119953125,47.18334490844727L252.97110953125,47.18334490844727L252.97110953125,44.79758490844726L257.27638953125,44.79758490844726L257.27638953125,42.470454908447266L252.97110953125,42.470454908447266L252.97110953125,40.71340490844727L258.00119953125,40.71340490844727L258.00119953125,38.317874908447266L248.14501953125,38.317874908447266L248.14501953125,49.59517490844726L258.00119953125,49.59517490844726Z" fill-rule="evenodd" fill="#000000" fill-opacity="1"/></g><g><path d="M211.21304321289062,40.82534294677734L214.49748321289061,40.82534294677734L214.49748321289061,49.59513294677734L219.64240321289063,49.59513294677734L219.64240321289063,40.82534294677734L222.92884321289063,40.82534294677734L222.92884321289063,38.317832946777344L211.21304321289062,38.317832946777344L211.21304321289062,40.82534294677734Z" fill-rule="evenodd" fill="#000000" fill-opacity="1"/></g><g><path d="M163.2725171875,49.59513572998047L163.2725171875,38.30443572998047L158.1108571875,38.30443572998047L158.1108571875,43.52672572998047L153.9696771875,38.30443572998047L148.3076171875,38.30443572998047L148.3076171875,49.59513572998047L153.4688271875,49.59513572998047L153.4688271875,44.09679572998047L157.7134371875,49.59513572998047L163.2725171875,49.59513572998047Z" fill-rule="evenodd" fill="#000000" fill-opacity="1"/></g><g><path d="M126.66497939208985,42.59131098510742L124.27555939208985,38.31779098510742L119.55818939208984,38.31779098510742L124.12040939208984,45.61963098510742L124.12040939208984,49.59509098510742L129.26695939208983,49.59509098510742L129.26695939208983,45.53371098510742L133.77298939208984,38.31779098510742L129.05643939208986,38.31779098510742L126.66497939208985,42.59131098510742Z" fill-rule="evenodd" fill="#000000" fill-opacity="1"/></g><g><path d="M115.0654338256836,49.59517490844726L119.18673382568359,38.317874908447266L114.41600382568359,38.317874908447266L111.98992382568359,45.44828490844726L109.5732238256836,38.317874908447266L104.8037338256836,38.317874908447266L108.93270382568359,49.59517490844726L115.0654338256836,49.59517490844726Z" fill-rule="evenodd" fill="#000000" fill-opacity="1"/></g><g><path d="M92.25163269042969,49.596088806152345L96.38223269042969,38.317588806152344L102.26453269042969,38.317588806152344L106.39683269042969,49.596088806152345L101.57683269042968,49.596088806152345L101.19487269042969,48.265388806152345L97.45193269042969,48.265388806152345L97.07202269042969,49.596088806152345L92.25163269042969,49.596088806152345ZM99.31974269042969,41.728678806152345L98.07535269042968,46.078338806152345L100.56861269042969,46.078338806152345L99.31974269042969,41.728678806152345Z" fill-rule="evenodd" fill="#000000" fill-opacity="1"/></g><g><path d="M91.42742232177734,49.595208142089845L91.42742232177734,47.183338142089845L86.40222232177734,47.183338142089845L86.40222232177734,44.79757814208985L90.70425232177735,44.79757814208985L90.70425232177735,42.470458142089846L86.40222232177734,42.470458142089846L86.40222232177734,40.71340814208985L91.42742232177734,40.71340814208985L91.42742232177734,38.319908142089844L81.57369232177734,38.319908142089844L81.57369232177734,49.595208142089845L91.42742232177734,49.595208142089845Z" fill-rule="evenodd" fill="#000000" fill-opacity="1"/></g><g><path d="M179.7852890625,43.94075997924805C179.7852890625,47.24067997924804,177.3591890625,49.59585997924805,172.3596590625,49.59585997924805L165.4462890625,49.59585997924805L165.4462890625,38.30475997924805L172.6117190625,38.30475997924805C176.7182890625,38.30475997924805,179.7852890625,40.240979979248046,179.7852890625,43.94075997924805ZM170.6070890625,46.426689979248046L171.7802190625,46.426689979248046C173.1443290625,46.426689979248046,174.2804090625,45.198179979248046,174.2804090625,43.870719979248044C174.2804090625,42.141359979248044,173.3255290625,41.06676997924805,171.5977990625,41.06676997924805L170.6070890625,41.06676997924805L170.6070890625,46.426689979248046Z" fill-rule="evenodd" fill="#000000" fill-opacity="1"/></g><g><path d="M224.91778564453125,49.595768914794924L224.91778564453125,38.31766891479492L234.95678564453124,38.31766891479492C237.06358564453126,38.31766891479492,238.82228564453126,39.55716891479492,238.82228564453126,41.83543891479492C238.82228564453126,43.784678914794924,237.25538564453126,45.08729891479492,235.29638564453126,45.16425891479492L239.80368564453124,49.59826891479492L233.75149564453125,49.59826891479492L230.37013564453125,45.95258891479492L230.37013564453125,49.595768914794924L224.91778564453125,49.595768914794924ZM230.37013564453125,43.32616891479492L232.10845564453126,43.32616891479492C232.92325564453125,43.32616891479492,233.60368564453125,42.81106891479492,233.60368564453125,41.95473891479492C233.60368564453125,40.98072891479492,232.87480564453125,40.473768914794924,232.21392564453126,40.473768914794924L230.37013564453125,40.473768914794924L230.37013564453125,43.32616891479492Z" fill-rule="evenodd" fill="#000000" fill-opacity="1"/></g><g><path d="M74.2774687866211,38.317752838134766L74.2774687866211,42.263892838134765L70.6591287866211,42.263892838134765L70.6591287866211,38.317752838134766L65.5345687866211,38.317752838134766L65.5345687866211,49.59505283813476L70.6591287866211,49.59505283813476L70.6591287866211,45.54304283813477L74.2774687866211,45.54304283813477L74.2774687866211,49.59505283813476L79.40076878662109,49.59505283813476L79.40076878662109,38.317752838134766L74.2774687866211,38.317752838134766Z" fill-rule="evenodd" fill="#000000" fill-opacity="1"/></g><g mask="url(#master_svg2_0_491)"><g><path d="M96.63411712646484,35.00783528747559L105.47230712646484,35.00783528747559L105.47230712646484,16.530935287475586L96.63411712646484,16.530935287475586L96.63411712646484,35.00783528747559Z" fill-rule="evenodd" fill="#000000" fill-opacity="1"/></g><g><path d="M82.99202900390625,16.531179428100586L79.79552900390625,23.016999428100586L76.59582900390625,16.531179428100586L68.08702900390625,16.531179428100586L65.53472900390625,35.00807942810059L73.79062900390625,35.00807942810059L74.52846900390625,27.291379428100583L79.79552900390625,35.00807942810059L85.05972900390626,27.291379428100583L85.79882900390625,35.00807942810059L94.05472900390625,35.00807942810059L91.50122900390625,16.531179428100586L82.99202900390625,16.531179428100586Z" fill-rule="evenodd" fill="#000000" fill-opacity="1"/></g><g><path d="M126.7926734375,16.531179428100586L108.0302734375,16.531179428100586L108.0302734375,21.577149428100586L113.16053343749999,21.577149428100586L113.16053343749999,35.01217942810059L121.6639734375,35.01217942810059L121.6639734375,21.577149428100586L126.7926734375,21.577149428100586L126.7926734375,16.531179428100586Z" fill-rule="evenodd" fill="#000000" fill-opacity="1"/></g><g><path d="M149.20984951171874,23.887335612182618L149.20984951171874,18.563245612182616C146.15264951171875,17.083091612182617,142.52004951171875,16.150205612182617,139.06134951171876,16.150205612182617C132.56125951171876,16.150205612182617,129.01824951171875,18.339695612182616,129.01824951171875,21.973105612182618C129.01824951171875,25.106885612182616,130.98500951171874,26.307305612182617,134.31382951171875,27.564705612182618C138.16590951171875,29.020905612182617,140.61764951171875,28.29280561218262,140.61764951171875,29.478105612182617C140.61764951171875,29.939105612182615,140.47594951171874,30.284805612182616,138.98436951171874,30.284805612182616C135.50935951171874,30.284805612182616,132.17034951171874,28.904405612182618,129.75934651171875,27.526005612182615L129.75934651171875,33.042305612182616C132.83733951171874,34.44630561218261,136.63036951171875,35.34090561218262,139.72504951171874,35.34090561218262C143.90204951171876,35.34090561218262,149.80644951171874,34.36650561218262,149.80644951171874,29.442305612182615C149.80644951171874,26.013305612182616,146.84734951171876,24.228975612182616,142.83804951171874,23.313185612182618C139.83214951171874,22.62706561218262,137.81734951171876,22.844505612182616,137.81734951171876,21.742225612182615C137.81734951171876,21.190065612182618,138.59875951171875,20.975885612182616,139.91884951171875,20.975885612182616C142.76394951171875,20.975885612182616,146.76914951171875,22.318005612182617,149.20984951171874,23.887335612182618L149.20984951171874,23.887335612182618Z" fill-rule="evenodd" fill="#000000" fill-opacity="1"/></g><g><path d="M202.54904174804688,35.01193528747559L211.38641174804687,35.01193528747559L211.38641174804687,16.530935287475586L202.54904174804688,16.530935287475586L202.54904174804688,35.01193528747559Z" fill-rule="evenodd" fill="#000000" fill-opacity="1"/></g><g><path d="M263.9863586425781,35.01193528747559L272.8212886425781,35.01193528747559L272.8212886425781,16.530935287475586L263.9863586425781,16.530935287475586L263.9863586425781,35.01193528747559Z" fill-rule="evenodd" fill="#000000" fill-opacity="1"/></g><g><path d="M234.57033730468748,23.887335612182618L234.57033730468748,18.563245612182616C231.5118373046875,17.083091612182617,227.8780373046875,16.150205612182617,224.4193373046875,16.150205612182617C217.9204873046875,16.150205612182617,214.3807373046875,18.339695612182616,214.3807373046875,21.973105612182618C214.3807373046875,25.106885612182616,216.3458673046875,26.307305612182617,219.6738773046875,27.564705612182618C223.5255473046875,29.020905612182617,225.9797373046875,28.29280561218262,225.9797373046875,29.478105612182617C225.9797373046875,29.939105612182615,225.8363373046875,30.284805612182616,224.3431973046875,30.284805612182616C220.8710373046875,30.284805612182616,217.5320273046875,28.904405612182618,215.1181693046875,27.526005612182615L215.1181693046875,33.042305612182616C218.2002373046875,34.44630561218261,221.9900073046875,35.34090561218262,225.0843373046875,35.34090561218262C229.2605373046875,35.34090561218262,235.1644373046875,34.36650561218262,235.1644373046875,29.442305612182615C235.1644373046875,26.013305612182616,232.2081373046875,24.228975612182616,228.1997373046875,23.313185612182618C225.1942373046875,22.62706561218262,223.1761673046875,22.844505612182616,223.1761673046875,21.742225612182615C223.1761673046875,21.190065612182618,223.9583973046875,20.975885612182616,225.2793373046875,20.975885612182616C228.1248373046875,20.975885612182616,232.1300373046875,22.318005612182617,234.57033730468748,23.887335612182618L234.57033730468748,23.887335612182618Z" fill-rule="evenodd" fill="#000000" fill-opacity="1"/></g><g><path d="M163.91901694335937,35.3409497253418C169.66291694335936,35.3409497253418,175.34571694335938,33.0142497253418,175.34571694335938,27.670149725341798L175.34571694335938,16.531749725341797L166.71971694335937,16.531749725341797L166.71971694335937,27.870149725341797C166.71971694335937,29.3755497253418,165.50671694335938,30.628849725341794,163.91901694335937,30.628849725341794C162.33135694335937,30.628849725341794,161.1166969433594,29.3755497253418,161.1166969433594,27.870149725341797L161.1166969433594,16.531749725341797L152.48861694335938,16.531749725341797L152.48861694335938,27.670149725341798C152.48861694335938,33.0142497253418,158.17388694335938,35.3409497253418,163.91901694335937,35.3409497253418L163.91901694335937,35.3409497253418Z" fill-rule="evenodd" fill="#000000" fill-opacity="1"/></g><g><path d="M199.78426169433595,30.105079428100588C199.78426169433595,32.63657942810059,198.07686169433595,35.01217942810059,192.97066169433594,35.01217942810059L178.41136169433594,35.01217942810059L178.41136169433594,16.531179428100586L193.19706169433593,16.531179428100586C196.04946169433595,16.531179428100586,198.73246169433594,18.558199428100586,198.73246169433594,21.543759428100586C198.73246169433594,23.167659428100585,197.91036169433593,24.634789428100586,196.43546169433594,25.363669428100586C198.40716169433594,26.125119428100586,199.78426169433595,27.698979428100586,199.78426169433595,30.105079428100588ZM189.51636169433593,20.456139428100585C190.50466169433594,20.456139428100585,191.04706169433592,21.157739428100584,191.04706169433592,21.924079428100587C191.04706169433592,22.784079428100586,190.34956169433593,23.302029428100585,189.54656169433594,23.302029428100585L187.36356169433594,23.302029428100585L187.36356169433594,20.456139428100585L189.51636169433593,20.456139428100585ZM189.54656169433594,30.358379428100584L187.36356169433594,30.358379428100584L187.36356169433594,27.546679428100585L189.63616169433593,27.546679428100585C190.36496169433593,27.546679428100585,191.10286169433593,28.068679428100587,191.10286169433593,28.946579428100584C191.10286169433593,29.719479428100584,190.47906169433594,30.358379428100584,189.54656169433594,30.358379428100584Z" fill-rule="evenodd" fill="#000000" fill-opacity="1"/></g><g><path d="M251.946516015625,16.531179428100586L251.946516015625,23.044279428100587L246.927426015625,23.044279428100587L246.927426015625,16.531179428100586L238.138916015625,16.531179428100586L238.138916015625,35.01217942810059L246.927426015625,35.01217942810059L246.927426015625,28.416779428100586L251.946516015625,28.416779428100586L251.946516015625,35.01217942810059L260.735016015625,35.01217942810059L260.735016015625,16.531179428100586L251.946516015625,16.531179428100586Z" fill-rule="evenodd" fill="#000000" fill-opacity="1"/></g><g><path d="M28.63711085571289,33.063981439196944L38.180120855712886,16.533881439196946L28.63386085571289,0.00008143919694703072L19.09122085571289,16.53138143919695L28.63711085571289,33.063981439196944Z" fill-rule="evenodd" fill="#E31F26" fill-opacity="1"/></g><g><path d="M28.637115478515625,33.063987731933594L38.180165478515626,49.595287731933595L57.26991547851563,49.595287731933595L47.72321547851563,33.063987731933594L28.637115478515625,33.063987731933594Z" fill-rule="evenodd" fill="#E31F26" fill-opacity="1"/></g><g><path d="M28.637137121606106,33.063987731933594L9.545327121606105,33.063987731933594L-0.00016287839389406145,49.595287731933595L19.091637121606105,49.595287731933595L28.637137121606106,33.063987731933594Z" fill-rule="evenodd" fill="#E31F26" fill-opacity="1"/></g></g></g></svg>