<svg xmlns="http://www.w3.org/2000/svg" xmlns:xlink="http://www.w3.org/1999/xlink" fill="none" version="1.1" width="32" height="32" viewBox="0 0 32 32"><g><g><path d="M4.36364,0L27.6364,0C30.0463,0,32,1.95367,32,4.36364L32,27.6364C32,30.0463,30.0463,32,27.6364,32L4.36364,32C1.95367,32,0,30.0463,0,27.6364L0,4.36364C0,1.95367,1.95367,0,4.36364,0ZM10.1818,22.3635L22.2418,16.618C22.4054,16.5366,22.5094,16.3703,22.5109,16.1876C22.5124,16.0049,22.4113,15.8368,22.2491,15.7526L10.1818,9.63623C10.0326,9.56497,9.8573,9.57461,9.71675,9.66181C9.57621,9.74901,9.48973,9.90176,9.48728,10.0671L9.48728,21.929C9.48651,22.0958,9.5721,22.2512,9.71354,22.3397C9.85498,22.4281,10.0321,22.4372,10.1818,22.3635Z" fill-rule="evenodd" fill="#E31F26" fill-opacity="1"/></g></g></svg>